<svg t="1684328174931" class="icon" viewBox="0 0 1024 1024" version="1.1"
    xmlns="http://www.w3.org/2000/svg" p-id="15958" width="200" height="200">
    <path
        d="M704 115.2c-44.8 0-83.2 19.2-115.2 44.8C550.4 89.6 480 44.8 396.8 44.8 281.6 44.8 185.6 134.4 185.6 256s96 211.2 211.2 211.2c64 0 121.6-32 160-76.8 32 44.8 83.2 76.8 147.2 76.8 96 0 172.8-76.8 172.8-172.8 0-102.4-76.8-179.2-172.8-179.2zM396.8 384c-70.4 0-128-57.6-128-128s57.6-128 128-128 128 57.6 128 128-57.6 128-128 128zM704 384c-51.2 0-96-44.8-96-96S646.4 192 704 192c51.2 0 96 44.8 96 96-6.4 51.2-44.8 96-96 96zM710.4 499.2H492.8c-83.2 0-147.2 51.2-166.4 128L204.8 556.8C134.4 518.4 44.8 569.6 44.8 646.4v153.6c0 83.2 89.6 134.4 160 89.6l115.2-64c19.2 76.8 89.6 128 166.4 128h224c96 0 172.8-76.8 172.8-172.8v-102.4c6.4-102.4-70.4-179.2-172.8-179.2z m-416 249.6l-134.4 76.8c-12.8 6.4-32 0-32-19.2v-153.6c0-19.2 19.2-32 32-19.2l134.4 76.8c6.4 6.4 12.8 12.8 12.8 19.2 0 6.4-6.4 12.8-12.8 19.2z m512 32c0 51.2-44.8 96-96 96H492.8c-51.2 0-96-44.8-96-96v-102.4c0-51.2 44.8-96 96-96h224c51.2 0 96 44.8 96 96v102.4z"
        fill="#2c2c2c" p-id="15959" data-spm-anchor-id="a313x.7781069.0.i39" class="selected"></path>
</svg>